<mxfile host="app.diagrams.net" modified="2023-06-26T19:56:28.789Z" agent="Mozilla/5.0 (Windows NT 10.0; Win64; x64) AppleWebKit/537.36 (KHTML, like Gecko) Chrome/115.0.0.0 Safari/537.36 Edg/115.0.1901.151" etag="DW2fhgWi0-9D-73dAyPB" version="21.5.0" type="github">
  <diagram name="Página-1" id="yYiiNmJXjO0RxLC58obF">
    <mxGraphModel dx="1050" dy="589" grid="0" gridSize="10" guides="1" tooltips="1" connect="1" arrows="1" fold="1" page="1" pageScale="1" pageWidth="1169" pageHeight="827" math="0" shadow="0">
      <root>
        <mxCell id="0" />
        <mxCell id="1" parent="0" />
        <mxCell id="jfAnCyKQQtdZV2QD3Zit-24" value="" style="edgeStyle=orthogonalEdgeStyle;rounded=0;orthogonalLoop=1;jettySize=auto;html=1;strokeWidth=2;" parent="1" source="KWH6BuMS6M0-6m1gaXWI-1" target="7NW9VpO9RizApT1En_R0-1" edge="1">
          <mxGeometry relative="1" as="geometry" />
        </mxCell>
        <mxCell id="KWH6BuMS6M0-6m1gaXWI-1" value="&lt;b&gt;&lt;font style=&quot;font-size: 26px;&quot;&gt;Dados&lt;/font&gt;&lt;/b&gt;&lt;span style=&quot;background-color: initial; font-size: 11px; text-align: left;&quot;&gt;I&lt;/span&gt;&lt;b&gt;&lt;br&gt;&lt;/b&gt;" style="rounded=0;whiteSpace=wrap;html=1;fontFamily=Helvetica;fillColor=#ffe6cc;strokeColor=#d79b00;" parent="1" vertex="1">
          <mxGeometry x="40" width="170" height="120" as="geometry" />
        </mxCell>
        <mxCell id="79OuwAxmggKIxa-oEmhA-5" value="" style="edgeStyle=orthogonalEdgeStyle;rounded=0;orthogonalLoop=1;jettySize=auto;html=1;exitX=0.609;exitY=0.986;exitDx=0;exitDy=0;exitPerimeter=0;strokeWidth=2;" parent="1" source="7NW9VpO9RizApT1En_R0-1" target="jfAnCyKQQtdZV2QD3Zit-1" edge="1">
          <mxGeometry relative="1" as="geometry" />
        </mxCell>
        <mxCell id="7NW9VpO9RizApT1En_R0-1" value="&lt;blockquote style=&quot;margin: 0 0 0 40px; border: none; padding: 0px;&quot;&gt;&lt;b style=&quot;&quot;&gt;&lt;font style=&quot;font-size: 26px;&quot;&gt;Dataloader&lt;/font&gt;&lt;/b&gt;&lt;/blockquote&gt;&lt;blockquote style=&quot;margin: 0 0 0 40px; border: none; padding: 0px;&quot;&gt;&lt;/blockquote&gt;" style="rounded=0;whiteSpace=wrap;html=1;align=left;fontFamily=Helvetica;fillColor=#dae8fc;strokeColor=#6c8ebf;" parent="1" vertex="1">
          <mxGeometry x="282" width="196" height="120" as="geometry" />
        </mxCell>
        <mxCell id="7NW9VpO9RizApT1En_R0-2" value="&lt;b&gt;&lt;font style=&quot;font-size: 26px;&quot;&gt;Data splitting&lt;/font&gt;&lt;br&gt;&lt;/b&gt;" style="rounded=0;whiteSpace=wrap;html=1;fontFamily=Helvetica;fillColor=#f8cecc;strokeColor=#b85450;" parent="1" vertex="1">
          <mxGeometry x="849" width="230" height="120" as="geometry" />
        </mxCell>
        <mxCell id="jfAnCyKQQtdZV2QD3Zit-1" value="&lt;div style=&quot;font-size: 26px;&quot;&gt;&lt;span style=&quot;background-color: initial;&quot;&gt;&lt;b style=&quot;&quot;&gt;&lt;font style=&quot;font-size: 26px;&quot;&gt;Pré-processamento&lt;/font&gt;&lt;/b&gt;&lt;/span&gt;&lt;/div&gt;&lt;div style=&quot;text-align: left;&quot;&gt;&lt;br&gt;&lt;/div&gt;" style="rounded=0;whiteSpace=wrap;html=1;fontFamily=Helvetica;fillColor=#dae8fc;strokeColor=#6c8ebf;" parent="1" vertex="1">
          <mxGeometry x="270" y="207" width="266" height="75" as="geometry" />
        </mxCell>
        <mxCell id="jfAnCyKQQtdZV2QD3Zit-21" value="" style="edgeStyle=orthogonalEdgeStyle;rounded=0;orthogonalLoop=1;jettySize=auto;html=1;fontFamily=Helvetica;strokeWidth=2;" parent="1" source="7NW9VpO9RizApT1En_R0-4" target="7NW9VpO9RizApT1En_R0-8" edge="1">
          <mxGeometry relative="1" as="geometry" />
        </mxCell>
        <mxCell id="7NW9VpO9RizApT1En_R0-4" value="&lt;font style=&quot;&quot;&gt;&lt;b style=&quot;&quot;&gt;&lt;font style=&quot;font-size: 19px;&quot;&gt;Seleção de modelos de rede neural&lt;/font&gt;&lt;/b&gt;&lt;br&gt;&lt;/font&gt;" style="rounded=0;whiteSpace=wrap;html=1;fontFamily=Helvetica;fillColor=#f8cecc;strokeColor=#b85450;" parent="1" vertex="1">
          <mxGeometry x="849" y="334" width="225" height="82" as="geometry" />
        </mxCell>
        <mxCell id="7NW9VpO9RizApT1En_R0-6" value="" style="endArrow=classic;html=1;rounded=0;fontFamily=Helvetica;entryX=0;entryY=0.5;entryDx=0;entryDy=0;strokeWidth=2;" parent="1" target="jfAnCyKQQtdZV2QD3Zit-1" edge="1">
          <mxGeometry width="50" height="50" relative="1" as="geometry">
            <mxPoint x="244" y="60" as="sourcePoint" />
            <mxPoint x="400" y="70" as="targetPoint" />
            <Array as="points">
              <mxPoint x="244" y="209" />
              <mxPoint x="244" y="246" />
            </Array>
          </mxGeometry>
        </mxCell>
        <mxCell id="jfAnCyKQQtdZV2QD3Zit-18" value="" style="edgeStyle=orthogonalEdgeStyle;rounded=0;orthogonalLoop=1;jettySize=auto;html=1;fontFamily=Helvetica;strokeWidth=2;" parent="1" source="7NW9VpO9RizApT1En_R0-8" target="7NW9VpO9RizApT1En_R0-12" edge="1">
          <mxGeometry relative="1" as="geometry" />
        </mxCell>
        <mxCell id="7NW9VpO9RizApT1En_R0-8" value="&lt;b&gt;&lt;font style=&quot;font-size: 20px;&quot;&gt;Adaptação e treinamento do modelo&lt;/font&gt;&lt;br&gt;&lt;/b&gt;" style="rounded=0;whiteSpace=wrap;html=1;fontFamily=Helvetica;fillColor=#f8cecc;strokeColor=#b85450;" parent="1" vertex="1">
          <mxGeometry x="385" y="335" width="180" height="81" as="geometry" />
        </mxCell>
        <mxCell id="jfAnCyKQQtdZV2QD3Zit-12" value="" style="edgeStyle=orthogonalEdgeStyle;rounded=0;orthogonalLoop=1;jettySize=auto;html=1;fontFamily=Helvetica;strokeWidth=2;" parent="1" source="7NW9VpO9RizApT1En_R0-12" target="jfAnCyKQQtdZV2QD3Zit-9" edge="1">
          <mxGeometry relative="1" as="geometry">
            <Array as="points">
              <mxPoint x="245" y="458" />
              <mxPoint x="123" y="458" />
            </Array>
          </mxGeometry>
        </mxCell>
        <mxCell id="7NW9VpO9RizApT1En_R0-12" value="&lt;b&gt;&lt;font style=&quot;font-size: 16px;&quot;&gt;Métricas de performance&lt;/font&gt;&lt;br&gt;&lt;/b&gt;" style="rounded=0;whiteSpace=wrap;html=1;fontFamily=Helvetica;fillColor=#f8cecc;strokeColor=#b85450;" parent="1" vertex="1">
          <mxGeometry x="115" y="335" width="200" height="60" as="geometry" />
        </mxCell>
        <mxCell id="EwQbYWL4RNd9TFPptIwR-4" style="edgeStyle=orthogonalEdgeStyle;rounded=0;orthogonalLoop=1;jettySize=auto;html=1;exitX=0.25;exitY=0;exitDx=0;exitDy=0;entryX=0.5;entryY=0;entryDx=0;entryDy=0;strokeWidth=2;dashed=1;" parent="1" source="jfAnCyKQQtdZV2QD3Zit-9" target="7NW9VpO9RizApT1En_R0-8" edge="1">
          <mxGeometry relative="1" as="geometry">
            <mxPoint x="85" y="355" as="targetPoint" />
            <Array as="points">
              <mxPoint x="85" y="315" />
              <mxPoint x="475" y="315" />
            </Array>
          </mxGeometry>
        </mxCell>
        <mxCell id="jfAnCyKQQtdZV2QD3Zit-9" value="&lt;b&gt;&lt;font style=&quot;font-size: 17px;&quot;&gt;Hyperparameters tuning&lt;/font&gt;&lt;/b&gt;" style="rounded=0;whiteSpace=wrap;html=1;fontFamily=Helvetica;fillColor=#f8cecc;strokeColor=#b85450;" parent="1" vertex="1">
          <mxGeometry x="45" y="519" width="160" height="55" as="geometry" />
        </mxCell>
        <mxCell id="7NW9VpO9RizApT1En_R0-19" value="" style="endArrow=classic;html=1;rounded=0;entryX=0.5;entryY=0;entryDx=0;entryDy=0;fontFamily=Helvetica;strokeWidth=2;" parent="1" target="jfAnCyKQQtdZV2QD3Zit-11" edge="1">
          <mxGeometry width="50" height="50" relative="1" as="geometry">
            <mxPoint x="244" y="459" as="sourcePoint" />
            <mxPoint x="475" y="505" as="targetPoint" />
            <Array as="points">
              <mxPoint x="248" y="459" />
              <mxPoint x="375" y="459" />
              <mxPoint x="573" y="457" />
            </Array>
          </mxGeometry>
        </mxCell>
        <mxCell id="jfAnCyKQQtdZV2QD3Zit-13" value="" style="endArrow=classic;html=1;rounded=0;exitX=1;exitY=0.5;exitDx=0;exitDy=0;entryX=0.5;entryY=1;entryDx=0;entryDy=0;fontFamily=Helvetica;strokeWidth=2;" parent="1" source="jfAnCyKQQtdZV2QD3Zit-11" target="7NW9VpO9RizApT1En_R0-4" edge="1">
          <mxGeometry width="50" height="50" relative="1" as="geometry">
            <mxPoint x="686" y="560" as="sourcePoint" />
            <mxPoint x="993.5" y="439" as="targetPoint" />
            <Array as="points">
              <mxPoint x="797" y="537" />
              <mxPoint x="962" y="539" />
            </Array>
          </mxGeometry>
        </mxCell>
        <mxCell id="EwQbYWL4RNd9TFPptIwR-7" value="" style="edgeStyle=orthogonalEdgeStyle;rounded=0;orthogonalLoop=1;jettySize=auto;html=1;strokeWidth=2;" parent="1" source="jfAnCyKQQtdZV2QD3Zit-11" target="EwQbYWL4RNd9TFPptIwR-5" edge="1">
          <mxGeometry relative="1" as="geometry" />
        </mxCell>
        <mxCell id="jfAnCyKQQtdZV2QD3Zit-11" value="&lt;b&gt;&lt;font style=&quot;font-size: 17px;&quot;&gt;Avaliação comparativa do modelo&lt;/font&gt;&lt;br&gt;&lt;/b&gt;" style="rounded=0;whiteSpace=wrap;html=1;fontFamily=Helvetica;fillColor=#f8cecc;strokeColor=#b85450;" parent="1" vertex="1">
          <mxGeometry x="494" y="500" width="160" height="74" as="geometry" />
        </mxCell>
        <mxCell id="EwQbYWL4RNd9TFPptIwR-16" style="edgeStyle=orthogonalEdgeStyle;rounded=0;orthogonalLoop=1;jettySize=auto;html=1;entryX=0;entryY=0.5;entryDx=0;entryDy=0;strokeWidth=2;dashed=1;exitX=0.5;exitY=0;exitDx=0;exitDy=0;" parent="1" source="EwQbYWL4RNd9TFPptIwR-5" target="KWH6BuMS6M0-6m1gaXWI-1" edge="1">
          <mxGeometry relative="1" as="geometry">
            <mxPoint x="20" y="510" as="targetPoint" />
            <Array as="points">
              <mxPoint x="372" y="623" />
              <mxPoint x="370" y="623" />
              <mxPoint x="370" y="591" />
              <mxPoint x="20" y="591" />
              <mxPoint x="20" y="60" />
            </Array>
          </mxGeometry>
        </mxCell>
        <mxCell id="EwQbYWL4RNd9TFPptIwR-5" value="&lt;font style=&quot;&quot;&gt;&lt;b style=&quot;&quot;&gt;&lt;font style=&quot;&quot;&gt;&lt;font style=&quot;font-size: 18px;&quot;&gt;Avaliação comparativa entre os datasets&lt;/font&gt;&lt;br&gt;&lt;/font&gt;&lt;/b&gt;&lt;/font&gt;" style="rounded=0;whiteSpace=wrap;html=1;fontFamily=Helvetica;fillColor=#f8cecc;strokeColor=#b85450;" parent="1" vertex="1">
          <mxGeometry x="257" y="630" width="230" height="60" as="geometry" />
        </mxCell>
        <mxCell id="79OuwAxmggKIxa-oEmhA-19" value="" style="endArrow=classic;html=1;rounded=0;strokeWidth=2;exitX=0.5;exitY=1;exitDx=0;exitDy=0;entryX=0.5;entryY=0;entryDx=0;entryDy=0;" parent="1" source="7NW9VpO9RizApT1En_R0-2" target="7NW9VpO9RizApT1En_R0-4" edge="1">
          <mxGeometry width="50" height="50" relative="1" as="geometry">
            <mxPoint x="579" y="364" as="sourcePoint" />
            <mxPoint x="629" y="314" as="targetPoint" />
          </mxGeometry>
        </mxCell>
        <mxCell id="ceVnhoytCDZQR9_K8rGN-1" value="" style="edgeStyle=orthogonalEdgeStyle;rounded=0;orthogonalLoop=1;jettySize=auto;html=1;strokeWidth=2;entryX=0;entryY=0.5;entryDx=0;entryDy=0;exitX=1;exitY=0.5;exitDx=0;exitDy=0;" parent="1" source="7NW9VpO9RizApT1En_R0-1" target="7NW9VpO9RizApT1En_R0-2" edge="1">
          <mxGeometry relative="1" as="geometry">
            <mxPoint x="496" y="51" as="sourcePoint" />
            <mxPoint x="292" y="70" as="targetPoint" />
          </mxGeometry>
        </mxCell>
        <mxCell id="ceVnhoytCDZQR9_K8rGN-2" value="" style="endArrow=classic;html=1;rounded=0;fontFamily=Helvetica;entryX=0;entryY=0.5;entryDx=0;entryDy=0;strokeWidth=2;exitX=1;exitY=0.5;exitDx=0;exitDy=0;" parent="1" source="jfAnCyKQQtdZV2QD3Zit-1" target="7NW9VpO9RizApT1En_R0-2" edge="1">
          <mxGeometry width="50" height="50" relative="1" as="geometry">
            <mxPoint x="254" y="70" as="sourcePoint" />
            <mxPoint x="297" y="219" as="targetPoint" />
            <Array as="points">
              <mxPoint x="573" y="243" />
              <mxPoint x="567" y="60" />
            </Array>
          </mxGeometry>
        </mxCell>
      </root>
    </mxGraphModel>
  </diagram>
</mxfile>
